<?xml version="1.0" encoding="UTF-8" standalone="no"?>
<svg
   width="300mm"
   height="100mm"
   viewBox="0 0 300 100"
   version="1.1"
   id="svg8"
   inkscape:export-filename="C:\Users\pajdla\Documents\projects\aiscr-webamcr-help\zakladni-info\figs\default.png"
   inkscape:export-xdpi="25.4"
   inkscape:export-ydpi="25.4"
   inkscape:version="1.0.2-2 (e86c870879, 2021-01-15)"
   sodipodi:docname="thumbnails.svg"
   xmlns:inkscape="http://www.inkscape.org/namespaces/inkscape"
   xmlns:sodipodi="http://sodipodi.sourceforge.net/DTD/sodipodi-0.dtd"
   xmlns="http://www.w3.org/2000/svg"
   xmlns:svg="http://www.w3.org/2000/svg"
   xmlns:rdf="http://www.w3.org/1999/02/22-rdf-syntax-ns#"
   xmlns:cc="http://creativecommons.org/ns#"
   xmlns:dc="http://purl.org/dc/elements/1.1/">
  <defs
     id="defs2" />
  <sodipodi:namedview
     id="base"
     pagecolor="#ffffff"
     bordercolor="#666666"
     borderopacity="1.0"
     inkscape:pageopacity="0.0"
     inkscape:pageshadow="2"
     inkscape:zoom="0.49497475"
     inkscape:cx="187.02451"
     inkscape:cy="405.78161"
     inkscape:document-units="mm"
     inkscape:current-layer="layer1"
     inkscape:document-rotation="0"
     showgrid="false"
     inkscape:snap-bbox="true"
     inkscape:snap-bbox-midpoints="true"
     showguides="true"
     inkscape:guide-bbox="true"
     inkscape:bbox-nodes="true"
     inkscape:snap-bbox-edge-midpoints="false"
     inkscape:window-width="1920"
     inkscape:window-height="1027"
     inkscape:window-x="1912"
     inkscape:window-y="-8"
     inkscape:window-maximized="1"
     inkscape:snap-nodes="false"
     inkscape:showpageshadow="2"
     inkscape:pagecheckerboard="0"
     inkscape:deskcolor="#d1d1d1">
    <inkscape:page
       x="0"
       y="0"
       width="300"
       height="100"
       id="page3"
       margin="0"
       bleed="0"
       inkscape:export-filename="thumb_pin_wrench.svg"
       inkscape:export-xdpi="25.4"
       inkscape:export-ydpi="25.4" />
  </sodipodi:namedview>
  <metadata
     id="metadata5">
    <rdf:RDF>
      <cc:Work
         rdf:about="">
        <dc:format>image/svg+xml</dc:format>
        <dc:type
           rdf:resource="http://purl.org/dc/dcmitype/StillImage" />
        <dc:title />
      </cc:Work>
    </rdf:RDF>
  </metadata>
  <g
     inkscape:label="Vrstva 1"
     inkscape:groupmode="layer"
     id="layer1"
     style="display:inline"
     transform="translate(-631.2906,17.63979)">
    <g
       id="g1521"
       transform="matrix(0.83536635,0,0,0.83536635,701.43483,5.9140638)"
       style="fill:#0d47a1;fill-opacity:1;stroke-width:1;stroke-miterlimit:4;stroke-dasharray:none"
       inkscape:export-xdpi="25.4"
       inkscape:export-ydpi="25.4">
      <text
         xml:space="preserve"
         style="font-style:normal;font-weight:normal;font-size:19.7556px;line-height:1.25;font-family:sans-serif;fill:#0d47a1;fill-opacity:1;stroke:none;stroke-width:1;stroke-miterlimit:4;stroke-dasharray:none"
         x="53.316753"
         y="28.859522"
         id="text1272"><tspan
           sodipodi:role="line"
           x="53.316753"
           y="28.859522"
           style="font-style:normal;font-variant:normal;font-weight:600;font-stretch:normal;font-size:19.7556px;font-family:Museo;-inkscape-font-specification:'Museo Semi-Bold';fill:#0d47a1;fill-opacity:1;stroke-width:1;stroke-miterlimit:4;stroke-dasharray:none"
           id="tspan1274">Digitální archiv</tspan></text>
      <text
         xml:space="preserve"
         style="font-style:normal;font-variant:normal;font-weight:300;font-stretch:normal;font-size:19.7556px;line-height:1.25;font-family:Museo;-inkscape-font-specification:'Museo Light';fill:#0d47a1;fill-opacity:1;stroke:none;stroke-width:1;stroke-miterlimit:4;stroke-dasharray:none"
         x="53.751377"
         y="50.215324"
         id="text1280"><tspan
           sodipodi:role="line"
           id="tspan1278"
           x="53.751377"
           y="50.215324"
           style="font-style:normal;font-variant:normal;font-weight:300;font-stretch:normal;font-size:19.7556px;font-family:Museo;-inkscape-font-specification:'Museo Light';fill:#0d47a1;fill-opacity:1;stroke-width:1;stroke-miterlimit:4;stroke-dasharray:none">AMČR</tspan></text>
      <g
         id="g1504"
         transform="matrix(1.19463,0,0,1.19463,87.950113,-7.5976535)"
         style="fill:#0d47a1;fill-opacity:1;stroke-width:0.837079;stroke-miterlimit:4;stroke-dasharray:none">
        <g
           id="g1348"
           transform="matrix(0.35277777,0,0,-0.35277777,-38.670715,25.863342)"
           style="fill:#0d47a1;fill-opacity:1;stroke-width:2.37282;stroke-miterlimit:4;stroke-dasharray:none">
          <path
             d="m 0,0 -29.831,-8.6 c -0.869,-7.803 -5.105,-14.741 -11.59,-19.066 l 9.587,-10.296 -11.568,-11.78 12.828,-11.955 c 5.577,5.595 11.277,11.992 17.759,19.927 0.267,0.321 0.515,0.624 0.761,0.933 l 0.143,0.175 C -3.942,-30.623 0.282,-18.495 0.282,-5.618 0.282,-3.748 0.185,-1.869 0,0"
             style="fill:#0d47a1;fill-opacity:1;fill-rule:nonzero;stroke:none;stroke-width:2.37282;stroke-miterlimit:4;stroke-dasharray:none"
             id="path1350" />
        </g>
        <g
           id="g1352"
           transform="matrix(0.35277777,0,0,-0.35277777,-50.947099,14.485903)"
           style="fill:#0d47a1;fill-opacity:1;stroke-width:2.37282;stroke-miterlimit:4;stroke-dasharray:none">
          <path
             d="m 0,0 -7.083,-15.179 c 6.93,-4.202 11.583,-11.408 12.588,-19.43 0.006,-0.052 0.021,-0.103 0.028,-0.156 l 28.952,8.348 c -0.011,0.051 -0.027,0.1 -0.038,0.151 -5.372,25.887 -27.801,44.481 -54.46,44.839 l 1.765,-10.464 z"
             style="fill:#0d47a1;fill-opacity:1;fill-rule:nonzero;stroke:none;stroke-width:2.37282;stroke-miterlimit:4;stroke-dasharray:none"
             id="path1354" />
        </g>
        <g
           id="g1356"
           transform="matrix(0.35277777,0,0,-0.35277777,-59.284155,18.291388)"
           style="fill:#0d47a1;fill-opacity:1;stroke-width:2.37282;stroke-miterlimit:4;stroke-dasharray:none">
          <path
             d="m 0,0 c 2.947,0 5.815,-0.476 8.561,-1.416 l 4.63,9.921 -15.742,6.999 -2.398,14.21 C -23.118,28.124 -39.463,17.751 -48.7,2.018 l 26.181,-14.561 C -17.727,-4.83 -9.235,0 0,0"
             style="fill:#0d47a1;fill-opacity:1;fill-rule:nonzero;stroke:none;stroke-width:2.37282;stroke-miterlimit:4;stroke-dasharray:none"
             id="path1358" />
        </g>
        <g
           id="g1360"
           transform="matrix(0.35277777,0,0,-0.35277777,-53.478244,39.817502)"
           style="fill:#0d47a1;fill-opacity:1;stroke-width:2.37282;stroke-miterlimit:4;stroke-dasharray:none">
          <path
             d="m 0,0 -6.958,7.473 c -3.024,-1.163 -6.211,-1.752 -9.5,-1.752 -5.775,0 -11.258,1.83 -15.802,5.22 l -13.372,-31.099 c 4.838,-5.104 8.581,-8.544 11.914,-11.611 5.81,-5.342 10.523,-9.678 17.26,-19.521 6.738,9.843 11.452,14.179 17.261,19.523 1.33,1.222 2.733,2.512 4.25,3.949 l -16.902,15.753 z"
             style="fill:#0d47a1;fill-opacity:1;fill-rule:nonzero;stroke:none;stroke-width:2.37282;stroke-miterlimit:4;stroke-dasharray:none"
             id="path1362" />
        </g>
        <g
           id="g1364"
           transform="matrix(0.35277777,0,0,-0.35277777,-68.638587,27.445692)"
           style="fill:#0d47a1;fill-opacity:1;stroke-width:2.37282;stroke-miterlimit:4;stroke-dasharray:none">
          <path
             d="m 0,0 c 0,2.699 0.416,5.335 1.211,7.877 0.05,0.162 0.087,0.327 0.141,0.488 L -25.032,23.039 C -25.1,22.887 -25.157,22.732 -25.224,22.58 -28.342,15.468 -29.93,7.891 -29.93,0 c 0,-12.877 4.224,-25.005 12.216,-35.07 l 0.881,-1.084 c 3.517,-4.304 6.798,-8.149 9.95,-11.659 L 6.3,-17.155 C 2.224,-12.365 0,-6.344 0,0"
             style="fill:#0d47a1;fill-opacity:1;fill-rule:nonzero;stroke:none;stroke-width:2.37282;stroke-miterlimit:4;stroke-dasharray:none"
             id="path1366" />
        </g>
      </g>
    </g>
  </g>
</svg>
